<svg width="1024" height="768" viewBox="0 0 1024 768" fill="none" xmlns="http://www.w3.org/2000/svg">
<path d="M1024 736C1024 744.667 1020.83 752.167 1014.5 758.5C1008.17 764.833 1000.67 768 992 768C983.333 768 975.833 764.833 969.5 758.5C963.167 752.167 960 744.667 960 736V315L607 492C580.333 505.333 548.667 512 512 512C475.333 512 443.667 505.333 417 492L39 303C13 289.667 0 273.833 0 255.5C0 237.167 13 221.667 39 209L417 20C443.667 6.66667 475.333 0 512 0C548.667 0 580.333 6.66667 607 20L985 209C1007.67 220.333 1020.33 234.333 1023 251C1023.67 251.667 1024 253 1024 255V736ZM639 556L832 459V600C832 628.667 800.833 653.167 738.5 673.5C676.167 693.833 600.667 704 512 704C423.333 704 347.833 693.833 285.5 673.5C223.167 653.167 192 628.667 192 600V459L385 556C411.667 569.333 454 576 512 576C570 576 612.333 569.333 639 556Z" fill="#725AC1"/>
</svg>
